<svg xmlns="http://www.w3.org/2000/svg" x="0px" y="0px" width="100" height="100" viewBox="0 0 48 48">
<path fill="#252f3e" d="M13.527,21.529c0,0.597,0.064,1.08,0.176,1.435c0.128,0.355,0.287,0.742,0.511,1.161 c0.08,0.129,0.112,0.258,0.112,0.371c0,0.161-0.096,0.322-0.303,0.484l-1.006,0.677c-0.144,0.097-0.287,0.145-0.415,0.145 c-0.16,0-0.319-0.081-0.479-0.226c-0.224-0.242-0.415-0.5-0.575-0.758c-0.16-0.274-0.319-0.58-0.495-0.951 c-1.245,1.483-2.81,2.225-4.694,2.225c-1.341,0-2.411-0.387-3.193-1.161s-1.181-1.806-1.181-3.096c0-1.37,0.479-2.483,1.453-3.321 s2.267-1.258,3.911-1.258c0.543,0,1.102,0.048,1.692,0.129s1.197,0.21,1.836,0.355v-1.177c0-1.225-0.255-2.08-0.75-2.58 c-0.511-0.5-1.373-0.742-2.602-0.742c-0.559,0-1.133,0.064-1.724,0.21c-0.591,0.145-1.165,0.322-1.724,0.532 c-0.192,0.081-0.335,0.113-0.431,0.113c-0.176,0-0.335-0.081-0.479-0.242l-0.591-0.742c-0.064-0.081-0.112-0.177-0.112-0.29 c0-0.129,0.048-0.258,0.144-0.387c1.373-1.306,3.161-1.951,5.364-1.951c2.14,0,3.752,0.484,4.838,1.451 s1.629,2.419,1.629,4.354v5.337H13.527z M12.871,21.013v-1.322c-0.911-0.226-1.741-0.371-2.491-0.435 c-0.751-0.065-1.357-0.097-1.82-0.097c-1.118,0-1.972,0.218-2.563,0.653s-0.886,1.024-0.886,1.766c0,0.613,0.192,1.105,0.575,1.475 c0.383,0.371,0.926,0.556,1.629,0.556C8.831,23.609,10.683,22.744,12.871,21.013z M21.905,11.388c0-0.258,0.064-0.452,0.192-0.58 c0.128-0.129,0.287-0.194,0.479-0.194h1.405c0.224,0,0.4,0.048,0.527,0.145s0.224,0.242,0.287,0.435l4.806,12.723 c0.048,0.129,0.08,0.242,0.08,0.339c0,0.177-0.096,0.339-0.287,0.484l-1.07,0.774c-0.128,0.097-0.255,0.145-0.383,0.145 c-0.176,0-0.335-0.081-0.479-0.242l-1.293-3.612h-5.237l-1.325,3.612c-0.064,0.161-0.192,0.242-0.383,0.242 c-0.128,0-0.255-0.048-0.383-0.145l-1.182-0.774c-.191-.145-.287-.306-.287-.484c0-.097.032-.21.096-.339L21.905,11.388z M25.37,19.338 l-1.901-5.321l-1.884,5.321H25.37z M41.021,22.4l0.144,1.419c0.016,0.129,0,0.242-0.048,0.339c-0.08,0.161-0.239,0.258-0.479,0.29 c-1.038,0.129-2.14,0.194-3.305,0.194c-2.315,0-4.04-0.548-5.174-1.645s-1.7-2.612-1.7-4.547c0-2.144,0.639-3.793,1.916-4.95 s3.098-1.733,5.461-1.733c0.91,0,1.74,0.064,2.491,0.194c0.144,0.016,0.271,0.081,0.383,0.194s0.16,0.258,0.144,0.435l-0.128,1.419 c-0.016,0.113-0.064,0.21-0.144,0.29c-0.128,0.113-0.303,0.161-0.527,0.145c-0.639-0.097-1.293-0.145-1.964-0.145 c-1.309,0-2.355,0.355-3.138,1.064s-1.173,1.758-1.173,3.144c0,1.242,0.312,2.153,0.934,2.733s1.554,0.871,2.795,0.871 c0.798,0,1.668-0.064,2.507-0.194c0.112-0.016,0.216-0.008,0.311,0.024C40.85,22.188,40.957,22.274,41.021,22.4z M10.457,28.847 c0.94,0.593,2.028,1.058,3.265,1.396c1.236,0.339,2.472,0.508,3.708,0.508c2.203,0,4.246-0.456,6.128-1.368 c1.883-0.912,3.488-2.138,4.815-3.679c0.237-0.276,0.485-0.344,0.744-0.203c0.259,0.14,0.357,0.366,0.293,0.678 c-0.638,3.018-2.316,5.434-5.034,7.247c-2.717,1.815-5.91,2.721-9.576,2.721c-2.616,0-4.996-0.508-7.14-1.524 c-2.144-1.016-3.83-2.361-5.056-4.032c-0.196-0.266-0.174-0.518,0.067-0.757c0.241-0.239,0.513-0.287,0.814-0.144 c0.748,0.355,1.442,0.637,2.083,0.846C7.21,30.746,8.514,29.832,10.457,28.847z M36.32,27.352c0.279,0,0.528,0.05,0.749,0.15 c0.222,0.1,0.413,0.245,0.573,0.435L47.787,39.99c0.16,0.21,0.24,0.452,0.24,0.726c0,0.403-0.214,0.71-0.64,0.92 c-0.128,0.065-0.28,0.097-0.456,0.097c-0.224,0-0.432-0.048-0.622-0.145c-0.304-0.161-0.544-0.452-0.719-0.871l-1.611-3.672h-1.928 l-1.02,2.378c-0.08,0.194-0.2,0.355-0.359,0.484c-0.16,0.129-0.359,0.194-0.599,0.194c-0.432,0-0.648-0.306-0.648-0.92 c0-0.242,0.096-0.452,0.287-0.629l7.042-12.012l0.287,0.816c0.128,0.419,0.312,0.73,0.551,0.932 c0.239,0.202,0.527,0.303,0.863,0.303H42z M41.97,34.02l-1-2.22l-1.053,2.22H41.97z"></path>
</svg>
