<svg xmlns="http://www.w3.org/2000/svg" width="1538" height="328"><path fill="#fff" fill-rule="evenodd" d="M638.9 262.4h-34.2V108h-.4l-61 154.4h-22.8L458.2 108h-.4v154.4h-31.4V65.6h49.1l56.4 145.8h.9l59.7-145.8h46.4zm28.2-181.8c0-5.4 1.8-10 5.9-13.6 4.1-3.7 8.6-5.5 14.1-5.5 5.9 0 10.9 1.8 14.6 5.5 3.6 3.6 5.9 8.2 5.9 13.6 0 5.5-1.8 10.1-5.9 13.7s-8.7 5.5-14.6 5.5-10.5-1.9-14.1-5.5c-3.6-4.1-5.9-8.7-5.9-13.7m36.8 40.6v141.2h-33.2V121.2zm100.6 117.1c5 0 10.4-1 16.4-3.7 5.9-2.3 11.3-5.5 16.3-9.1v31c-5.4 3.2-11.3 5.4-18.2 6.8-6.8 1.4-14.1 2.3-22.3 2.3-20.9 0-37.7-6.4-50.5-19.6-13.2-13.2-19.5-30.1-19.5-50.1 0-22.8 6.8-41.5 20-56 13.2-14.6 31.8-21.9 56.4-21.9 6.4 0 12.8.9 18.7 2.3 6.3 1.3 11.3 3.6 15 5.4v31.9c-5-3.6-10.5-6.8-15.5-8.6-5.4-1.9-10.9-3.2-16.4-3.2-13.2 0-23.6 4.1-31.8 12.7-8.2 8.7-11.9 20.1-11.9 34.7 0 14.1 4.1 25.5 11.9 33.2 7.7 7.8 18.2 11.9 31.4 11.9m126.9-119.4c2.8 0 5 0 7.3.5q3.4.6 5.5 1.3v33.7c-1.8-1.3-4.1-2.7-7.8-3.6-3.6-.9-7.2-1.8-12.2-1.8-8.2 0-15.1 3.6-20.5 10.4-5.5 6.9-8.7 17.4-8.7 31.9v71.1h-33.2V121.2H895v22.3h.5c3.2-7.7 7.7-13.7 13.6-18.2 6.4-4.1 13.7-6.4 22.3-6.4m14.6 75.2c0-23.3 6.8-41.9 19.6-55.6q19.7-20.5 54.6-20.5c21.8 0 39.1 6.4 51.4 19.6s18.6 31 18.6 53.3c0 22.8-6.8 41-19.5 54.6-13.2 13.7-31 20.5-53.7 20.5q-32.8 0-51.9-19.1c-12.7-13.2-19.1-31-19.1-52.8m34.6-1.4c0 14.6 3.2 26 10 33.7 6.8 7.8 16.4 11.9 28.7 11.9 11.8 0 21.3-3.7 27.7-11.9 6.4-7.7 9.6-19.1 9.6-34.6 0-15-3.2-26.4-9.6-34.6-6.4-7.8-15.9-11.9-27.3-11.9-12.3 0-21.4 4.1-28.2 12.3-7.7 8.7-10.9 20.1-10.9 35.1m159.2-34.2c0 4.6 1.4 8.7 4.6 11.4 3.2 2.8 9.5 5.9 20 10 13.2 5.5 22.8 11.4 27.8 17.8 5.4 6.8 8.2 14.6 8.2 24.2 0 13.2-5.1 23.6-15.5 31.8-10 8.2-24.1 11.9-41.4 11.9-5.9 0-12.3-.9-19.6-2.3s-13.2-3.2-18.2-5.5V225c5.9 4.1 12.7 7.8 19.6 10.1 6.8 2.2 13.2 3.6 19.1 3.6 7.3 0 13.2-.9 16.4-3.2 3.6-2.3 5.4-5.4 5.4-10.5 0-4.5-1.8-8.2-5.4-11.8-3.7-3.2-11-6.8-21-10.9-12.3-5-20.9-11-25.9-17.3-5-6.4-7.7-14.6-7.7-24.6q0-19.2 15-31.5c10-8.2 23.2-12.3 39.1-12.3 5 0 10.5.5 16.4 1.8 5.9 1.4 11.4 2.8 15.5 4.1v32.4c-4.6-2.7-9.6-5.5-15.5-7.8-5.9-2.2-11.8-3.1-17.3-3.1-6.4 0-11.4 1.3-14.6 3.6-3.1 3.2-5 6.4-5 10.9m74.7 35.6c0-23.3 6.8-41.9 19.5-55.6q19.8-20.5 54.6-20.5c21.9 0 39.2 6.4 51.4 19.6 12.3 13.2 18.7 31 18.7 53.3 0 22.8-6.8 41-19.6 54.6-13.2 13.7-30.9 20.5-53.7 20.5q-32.7 0-51.8-19.1c-12.3-13.2-19.1-31-19.1-52.8m34.5-1.4c0 14.6 3.2 26 10.1 33.7 6.8 7.8 16.3 11.9 28.6 11.9 11.8 0 21.4-3.7 27.8-11.9 6.3-7.7 9.5-19.1 9.5-34.6 0-15-3.2-26.4-9.5-34.6-6.4-7.8-16-11.9-27.3-11.9-12.3 0-21.4 4.1-28.2 12.3-7.3 8.7-11 20.1-11 35.1m170.7-44.2v113.9H1386V148.5h-23.7v-27.3h23.7v-19.6c0-14.6 5-26.9 14.6-36.5 9.5-9.5 21.8-14.1 36.8-14.1 4.1 0 7.8.5 10.9.5 3.2 0 6 .9 8.2 1.8V82c-.9-.5-3.2-1.4-5.9-2.3q-4.1-1.3-9.5-1.3c-6.9 0-12.3 2.2-16 6.3-3.6 4.1-5.4 11-5.4 19.2v16.8h49.6V88.8l33.2-10v41.9h33.7v27.4h-33.7v66c0 8.7 1.8 14.6 4.5 18.2q4.8 5.5 15.1 5.5 2.7 0 6.8-1.4c2.7-.9 5-1.8 6.8-3.2v27.4c-2.3 1.3-5.5 2.3-10.5 3.2s-9.5 1.3-14.5 1.3q-21.2 0-31.4-10.9c-6.8-7.3-10.5-18.7-10.5-33.7l.5-72zM0 0h155.6v155.8H0zm172 0h155.6v155.8H172zM0 172.2h155.6V328H0zm172 0h155.6V328H172z"/></svg>